<?xml version="1.0" standalone="no"?>
<!DOCTYPE svg PUBLIC "-//W3C//DTD SVG 20010904//EN"
 "http://www.w3.org/TR/2001/REC-SVG-20010904/DTD/svg10.dtd">
<svg version="1.0" xmlns="http://www.w3.org/2000/svg"
 width="619.000000pt" height="619.000000pt" viewBox="0 0 619.000000 619.000000"
 preserveAspectRatio="xMidYMid meet">
<metadata>
Created by potrace 1.11, written by Peter Selinger 2001-2013
</metadata>
<g transform="translate(0.000000,619.000000) scale(0.100000,-0.100000)"
fill="#000000" stroke="none">
<path d="M3110 5188 c0 -8 -8 -22 -18 -31 -20 -18 -62 -23 -62 -8 0 5 -11 9
-25 9 -23 0 -26 -4 -23 -32 3 -31 2 -31 -40 -29 -39 1 -43 -1 -39 -18 6 -20
-18 -28 -25 -8 -2 7 -24 -7 -48 -30 -25 -23 -62 -51 -82 -63 -21 -12 -38 -28
-38 -35 0 -8 -13 -19 -30 -24 -19 -7 -30 -18 -30 -29 0 -10 -6 -25 -14 -32 -8
-7 -56 -53 -106 -103 -82 -80 -92 -94 -94 -127 0 -21 -4 -38 -8 -38 -5 0 -8
-9 -8 -20 0 -11 5 -20 11 -20 8 0 8 -5 -1 -15 -7 -8 -19 -15 -26 -15 -8 0 -14
-9 -14 -20 0 -12 -7 -20 -16 -20 -9 0 -14 -6 -11 -13 7 -17 -40 -77 -59 -77
-8 0 -28 -14 -44 -31 l-28 -31 -6 29 c-4 17 -20 45 -35 64 l-29 34 -110 3
-109 4 -36 -32 c-32 -27 -43 -52 -102 -230 -46 -138 -72 -201 -83 -204 -19 -6
-146 -18 -177 -17 -11 1 -40 3 -65 6 -123 13 -276 13 -315 -1 -27 -10 -98 -16
-220 -18 -99 -2 -194 -6 -212 -9 -37 -7 -28 -28 -113 263 -45 154 -55 179 -85
208 l-35 32 -175 0 c-114 0 -175 -4 -175 -10 0 -6 42 -147 94 -313 52 -166
171 -547 265 -847 93 -300 202 -648 241 -775 40 -126 103 -331 142 -455 38
-124 74 -240 79 -258 l10 -32 167 2 166 3 87 258 c47 141 88 259 91 262 8 9
111 -34 137 -57 66 -59 101 -97 101 -110 0 -8 11 -20 25 -26 14 -6 25 -19 25
-27 0 -9 11 -26 25 -39 14 -13 25 -28 25 -33 0 -6 7 -23 15 -39 8 -16 22 -68
31 -114 9 -47 24 -98 32 -115 19 -37 24 -53 23 -84 -1 -13 7 -39 18 -56 10
-18 22 -46 26 -63 3 -16 21 -58 39 -93 45 -86 75 -102 180 -95 43 3 92 10 110
15 17 6 78 15 136 21 58 6 128 18 155 26 28 8 70 17 96 18 25 2 55 8 66 15 12
6 35 11 51 11 16 0 52 6 78 14 137 40 247 67 292 71 36 3 91 55 92 87 1 40
-31 132 -58 166 -43 55 -48 72 -9 29 47 -51 61 -49 55 8 -3 25 -2 48 3 51 14
8 11 21 -8 40 -12 11 -18 33 -18 62 l0 44 -37 -6 c-43 -7 -44 -4 -25 61 13 44
29 46 41 6 10 -30 55 -58 70 -43 13 12 15 107 3 131 -12 24 58 37 82 15 9 -8
42 -24 73 -36 37 -14 55 -26 52 -34 -3 -7 3 -19 12 -27 13 -11 18 -11 21 -1 8
23 32 14 25 -10 -7 -30 -16 -41 -74 -91 -15 -13 -25 -27 -21 -30 3 -4 1 -7 -5
-7 -15 0 -15 -23 0 -38 9 -9 16 -8 32 6 19 15 20 16 7 0 -7 -9 -10 -22 -6 -29
5 -7 0 -7 -16 1 -13 7 -28 19 -32 26 -12 20 -40 17 -60 -6 -9 -11 -27 -20 -39
-20 -13 0 -31 -7 -40 -14 -18 -14 -25 -56 -9 -56 18 0 18 -39 0 -56 -24 -22
-25 -74 -1 -100 10 -11 17 -25 14 -32 -2 -6 3 -12 12 -12 9 0 16 -8 16 -19 0
-29 60 -62 99 -55 19 4 31 2 31 -4 0 -6 3 -17 6 -26 4 -10 1 -16 -8 -16 -8 0
-15 -6 -15 -12 0 -7 -3 -23 -7 -36 l-7 -22 198 2 198 3 0 35 0 35 -60 5 -60 5
69 50 c38 28 86 65 106 83 41 35 75 45 46 13 -17 -18 -17 -22 1 -73 10 -29 20
-55 23 -58 13 -12 44 -94 43 -111 -1 -16 5 -18 40 -17 23 1 56 -2 74 -6 26 -6
32 -4 38 13 4 14 -1 32 -15 51 -14 20 -16 28 -7 24 8 -3 22 2 31 11 14 15 15
14 10 -13 -4 -17 -1 -32 5 -36 7 -5 3 -18 -14 -40 -27 -36 -31 -46 -15 -46 6
0 23 -11 37 -24 19 -18 34 -23 52 -20 14 3 43 -2 64 -11 32 -13 37 -19 27 -30
-9 -11 -9 -18 3 -30 20 -19 27 -19 27 0 0 21 13 19 28 -5 7 -12 17 -18 23 -14
6 3 17 -3 25 -14 7 -11 30 -23 50 -27 24 -4 38 -13 41 -26 3 -10 8 -19 12 -19
4 0 5 -16 3 -35 -3 -22 0 -35 7 -35 7 0 9 -5 6 -10 -3 -6 1 -13 9 -16 9 -3 16
-12 16 -18 0 -22 64 -35 162 -33 85 2 98 4 98 19 0 10 13 24 28 32 16 8 49 35
75 60 25 25 53 46 61 46 9 0 30 9 48 20 35 21 53 26 43 11 -9 -16 37 -25 49
-10 16 20 104 49 149 49 20 0 37 5 37 11 0 6 15 8 44 4 36 -6 46 -4 54 10 8
15 14 16 46 5 20 -6 41 -20 46 -30 13 -24 13 -97 0 -105 -6 -4 -8 -11 -5 -16
4 -5 1 -9 -4 -9 -17 0 -13 -18 9 -40 17 -17 28 -19 58 -15 89 15 149 55 107
71 -8 4 -15 13 -15 21 0 8 -4 11 -10 8 -5 -3 -10 1 -10 9 0 22 17 20 30 -4 16
-30 37 -24 51 13 6 19 27 44 46 57 20 13 42 34 50 47 9 13 22 23 31 23 8 0 30
11 48 25 18 14 44 29 58 35 14 5 26 16 26 25 0 8 6 15 13 15 32 1 49 30 54 91
l6 62 -47 -6 c-42 -6 -47 -5 -55 16 -12 30 -37 51 -51 42 -7 -4 -24 4 -38 17
-30 28 -64 47 -133 76 -26 11 -54 30 -63 43 -23 31 -86 130 -86 134 0 1 19 15
43 30 149 99 254 236 311 405 35 106 37 120 43 260 9 244 -51 389 -221 532
-100 84 -221 140 -530 244 -105 35 -232 85 -282 109 -156 78 -238 179 -247
309 -18 252 169 430 463 441 167 6 283 -25 427 -115 43 -27 97 -59 120 -72 41
-21 44 -21 77 -6 27 13 43 36 86 118 l52 102 -28 29 c-77 81 -258 175 -413
216 -124 33 -371 41 -495 17 -384 -74 -637 -373 -632 -742 1 -63 -2 -78 -11
-70 -7 6 -13 19 -13 30 0 30 -58 98 -83 98 -12 0 -35 7 -50 15 -25 13 -31 12
-57 -4 -17 -10 -27 -21 -22 -25 4 -5 -4 -6 -17 -4 -24 3 -24 5 -22 81 l2 77
-32 18 c-49 26 -67 47 -79 91 -6 25 -22 49 -39 62 -18 13 -32 34 -35 54 -4 18
-15 40 -26 50 -26 23 -26 25 10 140 17 54 30 101 30 106 0 5 -53 9 -117 10
-65 0 -112 3 -105 6 8 3 12 27 12 69 l0 64 30 0 c21 0 30 5 30 16 0 14 -8 16
-48 12 -27 -3 -53 0 -59 6 -7 6 -19 17 -27 24 -12 9 -13 18 -6 38 14 37 13 44
-10 44 -25 0 -70 42 -70 65 0 9 9 19 20 22 30 8 24 30 -10 42 -30 10 -78 74
-72 98 1 6 -7 14 -18 18 -11 3 -20 10 -20 14 0 4 -33 41 -74 83 -40 42 -75 81
-77 87 -3 7 -33 13 -69 15 -36 2 -75 7 -87 11 -17 5 -23 3 -23 -7z m-2320
-1428 c14 -11 29 -20 34 -20 13 0 86 -81 86 -95 0 -5 18 -23 40 -39 46 -34 65
-74 57 -121 -3 -19 -2 -37 2 -40 5 -2 7 -37 5 -77 -3 -40 -6 -119 -8 -174 -2
-56 -6 -106 -9 -111 -10 -15 42 -63 68 -63 21 0 26 -7 36 -44 6 -25 20 -52 30
-62 13 -12 17 -24 12 -42 -6 -24 -4 -25 26 -19 36 7 71 -9 71 -33 0 -8 16 -25
35 -38 19 -12 35 -28 35 -35 0 -6 -22 -77 -49 -157 -26 -80 -52 -161 -55 -180
-4 -19 -12 -53 -18 -75 l-11 -40 -14 70 c-14 68 -202 717 -284 980 -5 17 -35
116 -66 220 -30 105 -58 196 -60 203 -7 18 8 14 37 -8z m3731 -481 c110 -116
241 -179 643 -309 88 -28 171 -58 185 -66 24 -13 24 -14 3 -9 -14 4 -33 0 -50
-11 -44 -30 -73 -44 -91 -44 -37 0 -156 48 -159 64 -5 23 -24 15 -39 -15 -7
-13 -20 -23 -28 -21 -17 3 -75 -49 -75 -67 0 -6 6 -11 13 -12 10 0 10 -2 0 -6
-21 -8 -15 -43 10 -52 12 -5 37 -15 55 -21 17 -7 32 -19 32 -27 0 -9 6 -13 15
-9 8 3 24 2 36 -2 19 -7 19 -9 5 -21 -9 -8 -16 -19 -16 -25 0 -6 -9 -20 -21
-30 -16 -13 -20 -25 -15 -47 3 -16 1 -29 -4 -29 -6 0 -10 -6 -10 -14 0 -8 -9
-18 -20 -21 -11 -3 -20 -10 -20 -15 0 -13 -65 -23 -95 -16 -16 4 -25 13 -25
26 0 11 -7 20 -15 20 -17 0 -20 16 -5 25 16 10 12 45 -6 45 -8 0 -12 5 -8 11
8 13 -13 29 -39 29 -14 0 -17 -5 -12 -20 16 -49 -60 -7 -102 57 -15 22 -10 63
8 63 15 0 10 30 -6 31 -8 1 -21 2 -27 3 -7 0 -18 21 -24 45 -11 48 -26 60 -49
41 -17 -14 -55 -4 -55 15 0 7 -11 16 -25 19 -17 4 -25 13 -25 27 0 14 -5 19
-17 17 -10 -2 -17 -11 -17 -21 1 -9 -2 -17 -7 -17 -5 0 -9 5 -9 10 0 6 -6 10
-14 10 -15 0 -27 22 -31 55 -1 11 -3 25 -5 30 -2 6 2 28 9 50 13 41 1 102 -18
91 -4 -3 -17 1 -27 9 -17 12 -17 17 -6 35 11 18 11 25 -1 38 -20 24 -38 82
-29 96 4 6 16 12 27 13 11 2 43 6 70 10 l50 8 -3 40 -4 40 30 -45 c16 -25 45
-61 63 -81z m965 -452 c98 -73 143 -153 148 -271 6 -117 -32 -251 -93 -326
l-20 -25 -18 25 c-28 41 -74 80 -93 80 -11 0 -22 5 -25 10 -3 6 -16 10 -28 10
-54 0 -116 72 -131 150 -2 14 -5 30 -7 35 -5 20 14 46 30 40 22 -7 41 56 41
135 0 40 4 60 12 60 21 0 89 53 84 66 -3 7 2 15 10 18 8 3 14 12 14 21 0 23
13 19 76 -28z m-2351 -975 c-3 -3 -11 0 -18 7 -9 10 -8 11 6 5 10 -3 15 -9 12
-12z m42 12 c-3 -3 -12 -4 -19 -1 -8 3 -5 6 6 6 11 1 17 -2 13 -5z m883 -324
c0 -6 -11 -8 -27 -4 -40 10 -41 14 -5 14 18 0 32 -5 32 -10z"/>
<path d="M3328 2040 c-18 -16 -36 -30 -40 -30 -5 0 -7 -3 -6 -7 0 -5 -2 -16
-6 -25 -9 -21 14 -78 31 -78 26 0 63 24 63 42 0 10 7 18 15 18 20 0 65 45 65
65 0 9 -9 15 -21 15 -11 0 -27 7 -35 15 -21 21 -28 19 -66 -15z"/>
</g>
</svg>
